<svg viewBox="0 0 64 64" xmlns="http://www.w3.org/2000/svg"><circle cx="24.5" cy="28.5" fill="#e5efef" r="21.5"/><g stroke="#4c241d" stroke-linecap="round" stroke-linejoin="round" stroke-width="2"><circle cx="35" cy="38" fill="#fc8c29" r="21"/><path d="m35.432 61-2.843-9.469h-4.334l-1.051-2.602 1.051-5.41-5.622-1.09-.914-5.572-5.485-1.857-6.756 9.086v7.428l-3.3 1.129-4.571 8.357z" fill="#6b4f5b"/><path d="m28.118 51.456-2.742 2.742v2.743" fill="none"/><path d="m15.32 45.97.914-2.742v-2.743l-2.423-1.801" fill="none"/><path d="m62.75 61 .25-5-4-5-2-6-5-4-5 8-8 4 .32 8z" fill="#6b4f5b"/><path d="m47 49-1 8" fill="none"/><path d="m59 51-5 1" fill="none"/><path d="m22.478 42.222-.723 4.114 1.445 2.889" fill="none"/><path d="m40 51h-7l-1 10h9z" fill="#00ccca"/><path d="m35 4v10" fill="none"/><path d="m54.799 18.201-2.828 2.828" fill="none"/><path d="m60.667 26.81-3.667 1.599" fill="none"/><path d="m45.822 12.176-1.546 3.689" fill="none"/><path d="m15.144 18.201 2.828 2.828" fill="none"/><path d="m9.276 26.81 3.666 1.599" fill="none"/><path d="m24.121 12.176 1.546 3.689" fill="none"/><path d="m32 7 3-3 3 3" fill="none"/></g></svg>